<?xml version="1.0" encoding="utf-8"?>
<!-- Generator: Adobe Illustrator 27.5.0, SVG Export Plug-In . SVG Version: 6.00 Build 0)  -->
<svg version="1.1" id="PRINT" xmlns="http://www.w3.org/2000/svg" xmlns:xlink="http://www.w3.org/1999/xlink" x="0px" y="0px"
	 viewBox="0 0 500 500" style="enable-background:new 0 0 500 500;" xml:space="preserve">
<g>
	
		<rect id="CUSTOM-Background_00000031184353675384391880000003704147719533694606_" style="fill:#FF6A48;" width="500" height="500"/>
	<g id="CUSTOM-group">
		<g id="CUSTOM-group_00000059308557054500874520000013266341646465090975_">
			<path style="fill:#FFFFFF;" d="M344.15,245.068H158.08c0.86-50.64,42.18-91.43,93.04-91.43
				C301.97,153.638,343.29,194.428,344.15,245.068z"/>
			<path d="M344.15,247.569H158.08c-0.67,0-1.313-0.269-1.783-0.747c-0.47-0.479-0.729-1.125-0.717-1.795
				c0.427-25.172,10.555-48.769,28.516-66.444c17.983-17.697,41.786-27.443,67.023-27.443c25.233,0,49.033,9.746,67.015,27.443
				c17.961,17.676,28.087,41.273,28.515,66.444c0.011,0.67-0.247,1.317-0.718,1.795C345.463,247.299,344.82,247.569,344.15,247.569z
				 M160.659,242.569h180.913c-2.164-47.889-42.217-86.43-90.452-86.43C202.88,156.138,162.824,194.68,160.659,242.569z"/>
		</g>
		<g>
			<text transform="matrix(1 0 0 1 65.6409 302.6095)" style="font-family:'BreeSerif-Regular'; font-size:64.6554px;">Readingtime</text>
		</g>
		<text transform="matrix(1 0 0 1 162.4987 341.9197)" style="font-family:'Quicksand-Medium'; font-size:26px;">Public Library</text>
		<path id="CUSTOM" d="M432.374,247.569H67.626c-1.381,0-2.5-1.119-2.5-2.5c0-1.381,1.119-2.5,2.5-2.5h364.748
			c1.381,0,2.5,1.119,2.5,2.5C434.874,246.449,433.755,247.569,432.374,247.569z"/>
		<g id="CUSTOM-group_00000035531550193001230450000004992062966648269710_">
			<path style="fill:#FF6A48;" d="M298.212,243.944v-6.718H218.85c0,0-10.539,0.387-9.337-7.173
				c1.202-7.561,11.614-8.768,11.614-8.768h77.085v-6.832l-37.689-0.683c0,0,10.02-6.376,11.386-20.268
				c1.366-13.891-5.923-21.658-22.317-17.535c0,0-19.471-5.784-20.951,8.38c-1.48,14.165,10.179,28.398,10.179,28.398l-25.664,1.253
				c0,0-11.728,3.871-11.386,12.525s3.53,16.044,14.119,18.104C226.479,246.688,298.212,243.944,298.212,243.944z"/>
			<g>
				<path d="M263.777,188.244c1.075,0,1.948-0.873,1.948-1.948c0-1.075-0.873-1.948-1.948-1.948c-1.075,0-1.948,0.873-1.948,1.948
					C261.829,187.371,262.702,188.244,263.777,188.244z"/>
				<path d="M257.609,205.298c0.811,0.707,2.042,0.622,2.749-0.188c2.327-2.669,4.179-6.654,4.952-10.661
					c0.204-1.056-0.487-2.078-1.543-2.282c-1.055-0.204-2.078,0.487-2.282,1.543c-0.764,3.959-2.6,7.161-4.064,8.839
					C256.714,203.36,256.798,204.59,257.609,205.298z"/>
				<path d="M298.064,211.622H264.42c5.458-5.334,9.098-15.308,9.098-23.377c0-10.766-6.434-15.585-17.533-15.585
					c-1.256,0-2.491,0.159-3.698,0.474c0.667-3.142,2.977-5.713,6.261-6.808c1.021-0.34,1.573-1.444,1.233-2.464
					c-0.34-1.02-1.444-1.572-2.464-1.233c-3.287,1.096-5.885,3.253-7.455,6.013c-0.621-1.121-1.409-2.233-2.408-3.231
					c-4.315-4.317-10.728-4.44-10.999-4.444c-0.541-0.007-1.059,0.212-1.433,0.604c-0.373,0.391-0.567,0.92-0.535,1.46
					c0.015,0.247,0.392,5.876,4.197,10.11c-7.977,1.514-11.922,6.772-11.922,15.105c0,8.098,3.663,18.067,9.098,23.377h-18.059
					c-9.649,0-17.533,7.807-17.533,17.533c0,9.667,7.865,17.533,17.533,17.533h80.262c1.076,0,1.948-0.872,1.948-1.948v-7.792
					c0-1.076-0.872-1.948-1.948-1.948c-3.223,0-5.844-2.622-5.844-5.844c0-3.223,2.622-5.844,5.844-5.844
					c1.076,0,1.948-0.872,1.948-1.948v-7.792C300.012,212.494,299.14,211.622,298.064,211.622z M244.699,168.166
					c1.445,1.444,2.31,3.287,2.824,4.857c-1.056-0.239-2.134-0.364-3.227-0.364c-0.005,0-0.011,0-0.015,0
					c-0.896-0.501-1.681-1.084-2.336-1.74c-1.769-1.768-2.67-4.038-3.124-5.729C240.571,165.572,242.929,166.395,244.699,168.166z
					 M230.659,188.244c0-8.698,4.924-11.689,13.637-11.689c1.714,0,3.384,0.406,4.964,1.206c0.005,0.002,0.009,0.004,0.014,0.005
					c0.61,0.304,1.342,0.259,1.906-0.082c1.533-0.747,3.148-1.129,4.805-1.129c9.431,0,13.637,3.605,13.637,11.689
					c0,10.208-6.613,23.377-13.637,23.377h-11.689C237.272,211.622,230.659,198.452,230.659,188.244z M296.116,242.791h-78.314
					c-7.519,0-13.637-6.117-13.637-13.637c0-7.521,6.087-13.637,13.637-13.637h78.314v3.896h-78.314
					c-5.371,0-9.741,4.37-9.741,9.741s4.37,9.741,9.741,9.741h78.314V242.791z M290.277,234.999h-72.475
					c-3.223,0-5.844-2.622-5.844-5.844c0-3.223,2.622-5.846,5.844-5.846h72.475c-1.226,1.628-1.953,3.655-1.953,5.846
					C288.323,231.346,289.051,233.37,290.277,234.999z"/>
				<path d="M278.583,227.206h-56.885c-1.076,0-1.948,0.872-1.948,1.948s0.872,1.948,1.948,1.948h56.885
					c1.076,0,1.948-0.872,1.948-1.948S279.659,227.206,278.583,227.206z"/>
			</g>
		</g>
	</g>
</g>
</svg>
